<svg id="Layer_1" data-name="Layer 1" xmlns="http://www.w3.org/2000/svg" xmlns:xlink="http://www.w3.org/1999/xlink" viewBox="0 0 1080 25.99"><defs><style>.cls-1{fill:url(#linear-gradient);}.cls-2{fill:#13be96;}</style><linearGradient id="linear-gradient" x1="103.56" y1="11.01" x2="986.14" y2="11.01" gradientUnits="userSpaceOnUse"><stop offset="0" stop-color="#fff" stop-opacity="0"/><stop offset="0.38" stop-color="#13be96"/><stop offset="0.68" stop-color="#13be96"/><stop offset="1" stop-color="#13be96" stop-opacity="0"/></linearGradient></defs><title>line4</title><polygon class="cls-1" points="1080 11.98 771 11.98 309 11.98 0 11.98 0 10.03 309 10.03 771 10.03 1080 10.03 1080 11.98"/><polygon class="cls-2" points="913.02 25.99 916.11 16.99 920.14 16.99 916.98 25.99 913.02 25.99"/><polygon class="cls-2" points="905.89 25.99 908.98 16.99 913.02 16.99 909.85 25.99 905.89 25.99"/><polygon class="cls-2" points="898.76 25.99 901.86 16.99 905.89 16.99 902.72 25.99 898.76 25.99"/><polygon class="cls-2" points="181.89 25.99 178.79 16.99 174.76 16.99 177.93 25.99 181.89 25.99"/><polygon class="cls-2" points="189.02 25.99 185.92 16.99 181.89 16.99 185.06 25.99 189.02 25.99"/><polygon class="cls-2" points="196.15 25.99 193.05 16.99 189.02 16.99 192.19 25.99 196.15 25.99"/><polygon class="cls-2" points="188.89 25.99 185.79 16.99 181.76 16.99 184.93 25.99 188.89 25.99"/><polygon class="cls-2" points="196.02 25.99 192.92 16.99 188.89 16.99 192.06 25.99 196.02 25.99"/><polygon class="cls-2" points="203.15 25.99 200.05 16.99 196.02 16.99 199.19 25.99 203.15 25.99"/><polygon class="cls-2" points="543.81 3.63 543.81 19.43 540.18 19.43 536.55 19.43 536.55 3.63 540.18 0 543.81 3.63"/></svg>