<svg id="Layer_3" data-name="Layer 3" xmlns="http://www.w3.org/2000/svg" xmlns:xlink="http://www.w3.org/1999/xlink" viewBox="0 0 23.98 1080"><defs><style>.cls-1{fill:url(#linear-gradient);}.cls-2{fill:#13be96;}</style><linearGradient id="linear-gradient" x1="5.17" y1="1011.58" x2="12.14" y2="590.42" gradientUnits="userSpaceOnUse"><stop offset="0" stop-color="#fff" stop-opacity="0"/><stop offset="0.39" stop-color="#13be96"/></linearGradient></defs><title>line1</title><polygon class="cls-1" points="12 0 12 309 12 771 12 1080 13.95 1080 13.95 771 13.95 309 13.95 0 12 0"/><polygon class="cls-2" points="0 537.11 9 540.21 9 544.24 0 541.07 0 537.11"/><polygon class="cls-2" points="0 529.98 9 533.08 9 537.11 0 533.94 0 529.98"/><polygon class="cls-2" points="0 522.86 9 525.95 9 529.98 0 526.82 0 522.86"/><polygon class="cls-2" points="20.36 639.19 4.55 639.19 4.55 642.82 4.55 646.45 20.36 646.45 23.98 642.82 20.36 639.19"/></svg>