<svg id="Layer_4" data-name="Layer 4" xmlns="http://www.w3.org/2000/svg" xmlns:xlink="http://www.w3.org/1999/xlink" viewBox="0 0 23.98 1080"><defs><style>.cls-1{fill:url(#linear-gradient);}.cls-2{fill:#13be96;}</style><linearGradient id="linear-gradient" x1="2387.31" y1="1023" x2="2394.28" y2="601.84" gradientTransform="matrix(-1, 0, 0, 1, 2406.12, -11.42)" gradientUnits="userSpaceOnUse"><stop offset="0" stop-color="#fff" stop-opacity="0"/><stop offset="0.39" stop-color="#13be96"/></linearGradient></defs><title>line2</title><polygon class="cls-1" points="11.98 0 11.98 309 11.98 771 11.98 1080 10.03 1080 10.03 771 10.03 309 10.03 0 11.98 0"/><polygon class="cls-2" points="23.98 537.11 14.98 540.21 14.98 544.24 23.98 541.07 23.98 537.11"/><polygon class="cls-2" points="23.98 529.98 14.98 533.08 14.98 537.11 23.98 533.94 23.98 529.98"/><polygon class="cls-2" points="23.98 522.86 14.98 525.95 14.98 529.98 23.98 526.82 23.98 522.86"/><polygon class="cls-2" points="3.63 639.19 19.43 639.19 19.43 642.82 19.43 646.45 3.63 646.45 0 642.82 3.63 639.19"/></svg>